<mxfile host="app.diagrams.net" modified="2024-07-21T10:42:45.237Z" agent="Mozilla/5.0 (X11; Linux x86_64) AppleWebKit/537.36 (KHTML, like Gecko) Chrome/126.0.0.0 Safari/537.36" etag="-mSoonjyL1Rlw_O0MIsz" version="24.7.2" type="github">
  <diagram name="Page-1" id="JBKEfm_sHdzwt6imvYRR">
    <mxGraphModel dx="1714" dy="888" grid="1" gridSize="10" guides="1" tooltips="1" connect="1" arrows="1" fold="1" page="1" pageScale="1" pageWidth="1100" pageHeight="850" math="0" shadow="0">
      <root>
        <mxCell id="0" />
        <mxCell id="1" parent="0" />
        <mxCell id="N1mDc-vrhkv9pbBtjPSy-51" style="edgeStyle=orthogonalEdgeStyle;rounded=0;orthogonalLoop=1;jettySize=auto;html=1;exitX=0;exitY=0.75;exitDx=0;exitDy=0;" edge="1" parent="1" source="N1mDc-vrhkv9pbBtjPSy-9" target="N1mDc-vrhkv9pbBtjPSy-36">
          <mxGeometry relative="1" as="geometry">
            <mxPoint x="170" y="450" as="targetPoint" />
            <Array as="points">
              <mxPoint x="170" y="525" />
            </Array>
          </mxGeometry>
        </mxCell>
        <mxCell id="N1mDc-vrhkv9pbBtjPSy-54" value="HTTP response (HTML or ERROR)" style="edgeLabel;html=1;align=center;verticalAlign=middle;resizable=0;points=[];" vertex="1" connectable="0" parent="N1mDc-vrhkv9pbBtjPSy-51">
          <mxGeometry x="-0.0892" y="2" relative="1" as="geometry">
            <mxPoint y="-3" as="offset" />
          </mxGeometry>
        </mxCell>
        <mxCell id="N1mDc-vrhkv9pbBtjPSy-9" value="Server contents" style="points=[[0,0],[0.25,0],[0.5,0],[0.75,0],[1,0],[1,0.25],[1,0.5],[1,0.75],[1,1],[0.75,1],[0.5,1],[0.25,1],[0,1],[0,0.75],[0,0.5],[0,0.25]];outlineConnect=0;gradientColor=none;html=1;whiteSpace=wrap;fontSize=12;fontStyle=0;container=1;pointerEvents=0;collapsible=0;recursiveResize=0;shape=mxgraph.aws4.group;grIcon=mxgraph.aws4.group_on_premise;strokeColor=#7D8998;fillColor=none;verticalAlign=top;align=left;spacingLeft=30;fontColor=#5A6C86;dashed=0;" vertex="1" parent="1">
          <mxGeometry x="435" y="210" width="350" height="380" as="geometry" />
        </mxCell>
        <mxCell id="N1mDc-vrhkv9pbBtjPSy-15" style="edgeStyle=orthogonalEdgeStyle;rounded=0;orthogonalLoop=1;jettySize=auto;html=1;exitX=0.88;exitY=0.5;exitDx=0;exitDy=0;exitPerimeter=0;" edge="1" parent="N1mDc-vrhkv9pbBtjPSy-9" source="N1mDc-vrhkv9pbBtjPSy-8" target="N1mDc-vrhkv9pbBtjPSy-11">
          <mxGeometry relative="1" as="geometry" />
        </mxCell>
        <mxCell id="N1mDc-vrhkv9pbBtjPSy-8" value="NGNIX" style="fontColor=#0066CC;verticalAlign=top;verticalLabelPosition=bottom;labelPosition=center;align=center;html=1;outlineConnect=0;fillColor=#CCCCCC;strokeColor=#6881B3;gradientColor=none;gradientDirection=north;strokeWidth=2;shape=mxgraph.networks.web_server;" vertex="1" parent="N1mDc-vrhkv9pbBtjPSy-9">
          <mxGeometry x="40" y="30" width="80" height="100" as="geometry" />
        </mxCell>
        <mxCell id="N1mDc-vrhkv9pbBtjPSy-17" style="edgeStyle=orthogonalEdgeStyle;rounded=0;orthogonalLoop=1;jettySize=auto;html=1;" edge="1" parent="N1mDc-vrhkv9pbBtjPSy-9" source="N1mDc-vrhkv9pbBtjPSy-7" target="N1mDc-vrhkv9pbBtjPSy-11">
          <mxGeometry relative="1" as="geometry" />
        </mxCell>
        <mxCell id="N1mDc-vrhkv9pbBtjPSy-7" value="MYSQL" style="fontColor=#0066CC;verticalAlign=top;verticalLabelPosition=bottom;labelPosition=center;align=center;html=1;outlineConnect=0;fillColor=#CCCCCC;strokeColor=#6881B3;gradientColor=none;gradientDirection=north;strokeWidth=2;shape=mxgraph.networks.storage;" vertex="1" parent="N1mDc-vrhkv9pbBtjPSy-9">
          <mxGeometry x="212" y="220" width="80" height="110" as="geometry" />
        </mxCell>
        <mxCell id="N1mDc-vrhkv9pbBtjPSy-11" value="" style="verticalLabelPosition=bottom;sketch=0;aspect=fixed;html=1;verticalAlign=top;strokeColor=none;align=center;outlineConnect=0;shape=mxgraph.citrix.xenapp_server;" vertex="1" parent="N1mDc-vrhkv9pbBtjPSy-9">
          <mxGeometry x="210" y="30" width="85.39" height="100" as="geometry" />
        </mxCell>
        <mxCell id="N1mDc-vrhkv9pbBtjPSy-16" style="edgeStyle=orthogonalEdgeStyle;rounded=0;orthogonalLoop=1;jettySize=auto;html=1;entryX=0.88;entryY=0.5;entryDx=0;entryDy=0;entryPerimeter=0;" edge="1" parent="N1mDc-vrhkv9pbBtjPSy-9" source="N1mDc-vrhkv9pbBtjPSy-11" target="N1mDc-vrhkv9pbBtjPSy-8">
          <mxGeometry relative="1" as="geometry" />
        </mxCell>
        <mxCell id="N1mDc-vrhkv9pbBtjPSy-18" style="edgeStyle=orthogonalEdgeStyle;rounded=0;orthogonalLoop=1;jettySize=auto;html=1;entryX=0.5;entryY=0;entryDx=0;entryDy=0;entryPerimeter=0;" edge="1" parent="N1mDc-vrhkv9pbBtjPSy-9" source="N1mDc-vrhkv9pbBtjPSy-11" target="N1mDc-vrhkv9pbBtjPSy-7">
          <mxGeometry relative="1" as="geometry" />
        </mxCell>
        <mxCell id="N1mDc-vrhkv9pbBtjPSy-20" style="edgeStyle=orthogonalEdgeStyle;rounded=0;orthogonalLoop=1;jettySize=auto;html=1;" edge="1" parent="N1mDc-vrhkv9pbBtjPSy-9" source="N1mDc-vrhkv9pbBtjPSy-34" target="N1mDc-vrhkv9pbBtjPSy-8">
          <mxGeometry relative="1" as="geometry">
            <mxPoint x="126.59999999999991" y="230" as="sourcePoint" />
          </mxGeometry>
        </mxCell>
        <mxCell id="N1mDc-vrhkv9pbBtjPSy-34" value="" style="sketch=0;outlineConnect=0;fontColor=#232F3E;gradientColor=none;fillColor=#232F3D;strokeColor=none;dashed=0;verticalLabelPosition=bottom;verticalAlign=top;align=center;html=1;fontSize=12;fontStyle=0;aspect=fixed;pointerEvents=1;shape=mxgraph.aws4.source_code;" vertex="1" parent="N1mDc-vrhkv9pbBtjPSy-9">
          <mxGeometry x="45.75" y="228.13" width="68.5" height="93.74" as="geometry" />
        </mxCell>
        <mxCell id="N1mDc-vrhkv9pbBtjPSy-21" style="edgeStyle=orthogonalEdgeStyle;rounded=0;orthogonalLoop=1;jettySize=auto;html=1;entryX=0.5;entryY=0;entryDx=0;entryDy=0;" edge="1" parent="N1mDc-vrhkv9pbBtjPSy-9" source="N1mDc-vrhkv9pbBtjPSy-8" target="N1mDc-vrhkv9pbBtjPSy-34">
          <mxGeometry relative="1" as="geometry">
            <mxPoint x="80" y="220" as="targetPoint" />
          </mxGeometry>
        </mxCell>
        <mxCell id="N1mDc-vrhkv9pbBtjPSy-52" value="8.8.8.8" style="text;html=1;align=center;verticalAlign=middle;resizable=0;points=[];autosize=1;strokeColor=none;fillColor=none;" vertex="1" parent="N1mDc-vrhkv9pbBtjPSy-9">
          <mxGeometry x="120" width="60" height="30" as="geometry" />
        </mxCell>
        <mxCell id="N1mDc-vrhkv9pbBtjPSy-42" style="edgeStyle=orthogonalEdgeStyle;rounded=0;orthogonalLoop=1;jettySize=auto;html=1;curved=1;" edge="1" parent="1" source="N1mDc-vrhkv9pbBtjPSy-36" target="N1mDc-vrhkv9pbBtjPSy-37">
          <mxGeometry relative="1" as="geometry" />
        </mxCell>
        <mxCell id="N1mDc-vrhkv9pbBtjPSy-46" value="www.foobar.com" style="edgeLabel;html=1;align=center;verticalAlign=middle;resizable=0;points=[];" vertex="1" connectable="0" parent="N1mDc-vrhkv9pbBtjPSy-42">
          <mxGeometry x="0.2121" y="-10" relative="1" as="geometry">
            <mxPoint x="-10" y="-14" as="offset" />
          </mxGeometry>
        </mxCell>
        <mxCell id="N1mDc-vrhkv9pbBtjPSy-50" style="rounded=0;orthogonalLoop=1;jettySize=auto;html=1;" edge="1" parent="1" source="N1mDc-vrhkv9pbBtjPSy-36" target="N1mDc-vrhkv9pbBtjPSy-9">
          <mxGeometry relative="1" as="geometry" />
        </mxCell>
        <mxCell id="N1mDc-vrhkv9pbBtjPSy-53" value="HTTP request to 8.8.8.8" style="edgeLabel;html=1;align=center;verticalAlign=middle;resizable=0;points=[];" vertex="1" connectable="0" parent="N1mDc-vrhkv9pbBtjPSy-50">
          <mxGeometry x="0.3631" y="2" relative="1" as="geometry">
            <mxPoint x="-45" y="2" as="offset" />
          </mxGeometry>
        </mxCell>
        <mxCell id="N1mDc-vrhkv9pbBtjPSy-36" value="" style="sketch=0;pointerEvents=1;shadow=0;dashed=0;html=1;strokeColor=none;fillColor=#434445;aspect=fixed;labelPosition=center;verticalLabelPosition=bottom;verticalAlign=top;align=center;outlineConnect=0;shape=mxgraph.vvd.web_browser;" vertex="1" parent="1">
          <mxGeometry x="130" y="370" width="84.5" height="60" as="geometry" />
        </mxCell>
        <mxCell id="N1mDc-vrhkv9pbBtjPSy-40" style="edgeStyle=orthogonalEdgeStyle;rounded=0;orthogonalLoop=1;jettySize=auto;html=1;curved=1;" edge="1" parent="1" source="N1mDc-vrhkv9pbBtjPSy-37" target="N1mDc-vrhkv9pbBtjPSy-36">
          <mxGeometry relative="1" as="geometry" />
        </mxCell>
        <mxCell id="N1mDc-vrhkv9pbBtjPSy-45" value="8.8.8.8" style="edgeLabel;html=1;align=center;verticalAlign=middle;resizable=0;points=[];" vertex="1" connectable="0" parent="N1mDc-vrhkv9pbBtjPSy-40">
          <mxGeometry x="-0.3301" y="-9" relative="1" as="geometry">
            <mxPoint x="12" y="12" as="offset" />
          </mxGeometry>
        </mxCell>
        <mxCell id="N1mDc-vrhkv9pbBtjPSy-37" value="" style="sketch=0;pointerEvents=1;shadow=0;dashed=0;html=1;strokeColor=none;fillColor=#005F4B;labelPosition=center;verticalLabelPosition=bottom;verticalAlign=top;align=center;outlineConnect=0;shape=mxgraph.veeam2.dns;" vertex="1" parent="1">
          <mxGeometry x="40" y="260" width="60" height="58" as="geometry" />
        </mxCell>
        <mxCell id="N1mDc-vrhkv9pbBtjPSy-55" value="Server 2" style="points=[[0,0],[0.25,0],[0.5,0],[0.75,0],[1,0],[1,0.25],[1,0.5],[1,0.75],[1,1],[0.75,1],[0.5,1],[0.25,1],[0,1],[0,0.75],[0,0.5],[0,0.25]];outlineConnect=0;gradientColor=none;html=1;whiteSpace=wrap;fontSize=12;fontStyle=0;container=1;pointerEvents=0;collapsible=0;recursiveResize=0;shape=mxgraph.aws4.group;grIcon=mxgraph.aws4.group_on_premise;strokeColor=#7D8998;fillColor=none;verticalAlign=top;align=left;spacingLeft=30;fontColor=#5A6C86;dashed=0;" vertex="1" parent="1">
          <mxGeometry x="460" y="1070" width="350" height="380" as="geometry" />
        </mxCell>
        <mxCell id="N1mDc-vrhkv9pbBtjPSy-56" style="edgeStyle=orthogonalEdgeStyle;rounded=0;orthogonalLoop=1;jettySize=auto;html=1;exitX=0.88;exitY=0.5;exitDx=0;exitDy=0;exitPerimeter=0;" edge="1" parent="N1mDc-vrhkv9pbBtjPSy-55" source="N1mDc-vrhkv9pbBtjPSy-57" target="N1mDc-vrhkv9pbBtjPSy-60">
          <mxGeometry relative="1" as="geometry" />
        </mxCell>
        <mxCell id="N1mDc-vrhkv9pbBtjPSy-57" value="NGNIX" style="fontColor=#0066CC;verticalAlign=top;verticalLabelPosition=bottom;labelPosition=center;align=center;html=1;outlineConnect=0;fillColor=#CCCCCC;strokeColor=#6881B3;gradientColor=none;gradientDirection=north;strokeWidth=2;shape=mxgraph.networks.web_server;" vertex="1" parent="N1mDc-vrhkv9pbBtjPSy-55">
          <mxGeometry x="40" y="30" width="80" height="100" as="geometry" />
        </mxCell>
        <mxCell id="N1mDc-vrhkv9pbBtjPSy-58" style="edgeStyle=orthogonalEdgeStyle;rounded=0;orthogonalLoop=1;jettySize=auto;html=1;" edge="1" parent="N1mDc-vrhkv9pbBtjPSy-55" source="N1mDc-vrhkv9pbBtjPSy-59" target="N1mDc-vrhkv9pbBtjPSy-60">
          <mxGeometry relative="1" as="geometry" />
        </mxCell>
        <mxCell id="N1mDc-vrhkv9pbBtjPSy-59" value="MYSQL" style="fontColor=#0066CC;verticalAlign=top;verticalLabelPosition=bottom;labelPosition=center;align=center;html=1;outlineConnect=0;fillColor=#CCCCCC;strokeColor=#6881B3;gradientColor=none;gradientDirection=north;strokeWidth=2;shape=mxgraph.networks.storage;" vertex="1" parent="N1mDc-vrhkv9pbBtjPSy-55">
          <mxGeometry x="212" y="220" width="80" height="110" as="geometry" />
        </mxCell>
        <mxCell id="N1mDc-vrhkv9pbBtjPSy-60" value="" style="verticalLabelPosition=bottom;sketch=0;aspect=fixed;html=1;verticalAlign=top;strokeColor=none;align=center;outlineConnect=0;shape=mxgraph.citrix.xenapp_server;" vertex="1" parent="N1mDc-vrhkv9pbBtjPSy-55">
          <mxGeometry x="210" y="30" width="85.39" height="100" as="geometry" />
        </mxCell>
        <mxCell id="N1mDc-vrhkv9pbBtjPSy-61" style="edgeStyle=orthogonalEdgeStyle;rounded=0;orthogonalLoop=1;jettySize=auto;html=1;entryX=0.88;entryY=0.5;entryDx=0;entryDy=0;entryPerimeter=0;" edge="1" parent="N1mDc-vrhkv9pbBtjPSy-55" source="N1mDc-vrhkv9pbBtjPSy-60" target="N1mDc-vrhkv9pbBtjPSy-57">
          <mxGeometry relative="1" as="geometry" />
        </mxCell>
        <mxCell id="N1mDc-vrhkv9pbBtjPSy-62" style="edgeStyle=orthogonalEdgeStyle;rounded=0;orthogonalLoop=1;jettySize=auto;html=1;entryX=0.5;entryY=0;entryDx=0;entryDy=0;entryPerimeter=0;" edge="1" parent="N1mDc-vrhkv9pbBtjPSy-55" source="N1mDc-vrhkv9pbBtjPSy-60" target="N1mDc-vrhkv9pbBtjPSy-59">
          <mxGeometry relative="1" as="geometry" />
        </mxCell>
        <mxCell id="N1mDc-vrhkv9pbBtjPSy-63" style="edgeStyle=orthogonalEdgeStyle;rounded=0;orthogonalLoop=1;jettySize=auto;html=1;" edge="1" parent="N1mDc-vrhkv9pbBtjPSy-55" source="N1mDc-vrhkv9pbBtjPSy-64" target="N1mDc-vrhkv9pbBtjPSy-57">
          <mxGeometry relative="1" as="geometry">
            <mxPoint x="126.59999999999991" y="230" as="sourcePoint" />
          </mxGeometry>
        </mxCell>
        <mxCell id="N1mDc-vrhkv9pbBtjPSy-64" value="" style="sketch=0;outlineConnect=0;fontColor=#232F3E;gradientColor=none;fillColor=#232F3D;strokeColor=none;dashed=0;verticalLabelPosition=bottom;verticalAlign=top;align=center;html=1;fontSize=12;fontStyle=0;aspect=fixed;pointerEvents=1;shape=mxgraph.aws4.source_code;" vertex="1" parent="N1mDc-vrhkv9pbBtjPSy-55">
          <mxGeometry x="45.75" y="228.13" width="68.5" height="93.74" as="geometry" />
        </mxCell>
        <mxCell id="N1mDc-vrhkv9pbBtjPSy-65" style="edgeStyle=orthogonalEdgeStyle;rounded=0;orthogonalLoop=1;jettySize=auto;html=1;entryX=0.5;entryY=0;entryDx=0;entryDy=0;" edge="1" parent="N1mDc-vrhkv9pbBtjPSy-55" source="N1mDc-vrhkv9pbBtjPSy-57" target="N1mDc-vrhkv9pbBtjPSy-64">
          <mxGeometry relative="1" as="geometry">
            <mxPoint x="80" y="220" as="targetPoint" />
          </mxGeometry>
        </mxCell>
        <mxCell id="N1mDc-vrhkv9pbBtjPSy-67" value="Server 1" style="points=[[0,0],[0.25,0],[0.5,0],[0.75,0],[1,0],[1,0.25],[1,0.5],[1,0.75],[1,1],[0.75,1],[0.5,1],[0.25,1],[0,1],[0,0.75],[0,0.5],[0,0.25]];outlineConnect=0;gradientColor=none;html=1;whiteSpace=wrap;fontSize=12;fontStyle=0;container=1;pointerEvents=0;collapsible=0;recursiveResize=0;shape=mxgraph.aws4.group;grIcon=mxgraph.aws4.group_on_premise;strokeColor=#7D8998;fillColor=none;verticalAlign=top;align=left;spacingLeft=30;fontColor=#5A6C86;dashed=0;" vertex="1" parent="1">
          <mxGeometry x="90" y="1070" width="350" height="380" as="geometry" />
        </mxCell>
        <mxCell id="N1mDc-vrhkv9pbBtjPSy-68" style="edgeStyle=orthogonalEdgeStyle;rounded=0;orthogonalLoop=1;jettySize=auto;html=1;exitX=0.88;exitY=0.5;exitDx=0;exitDy=0;exitPerimeter=0;" edge="1" parent="N1mDc-vrhkv9pbBtjPSy-67" source="N1mDc-vrhkv9pbBtjPSy-69" target="N1mDc-vrhkv9pbBtjPSy-72">
          <mxGeometry relative="1" as="geometry" />
        </mxCell>
        <mxCell id="N1mDc-vrhkv9pbBtjPSy-69" value="NGNIX" style="fontColor=#0066CC;verticalAlign=top;verticalLabelPosition=bottom;labelPosition=center;align=center;html=1;outlineConnect=0;fillColor=#CCCCCC;strokeColor=#6881B3;gradientColor=none;gradientDirection=north;strokeWidth=2;shape=mxgraph.networks.web_server;" vertex="1" parent="N1mDc-vrhkv9pbBtjPSy-67">
          <mxGeometry x="40" y="30" width="80" height="100" as="geometry" />
        </mxCell>
        <mxCell id="N1mDc-vrhkv9pbBtjPSy-70" style="edgeStyle=orthogonalEdgeStyle;rounded=0;orthogonalLoop=1;jettySize=auto;html=1;" edge="1" parent="N1mDc-vrhkv9pbBtjPSy-67" source="N1mDc-vrhkv9pbBtjPSy-71" target="N1mDc-vrhkv9pbBtjPSy-72">
          <mxGeometry relative="1" as="geometry" />
        </mxCell>
        <mxCell id="N1mDc-vrhkv9pbBtjPSy-71" value="MYSQL" style="fontColor=#0066CC;verticalAlign=top;verticalLabelPosition=bottom;labelPosition=center;align=center;html=1;outlineConnect=0;fillColor=#CCCCCC;strokeColor=#6881B3;gradientColor=none;gradientDirection=north;strokeWidth=2;shape=mxgraph.networks.storage;" vertex="1" parent="N1mDc-vrhkv9pbBtjPSy-67">
          <mxGeometry x="212" y="220" width="80" height="110" as="geometry" />
        </mxCell>
        <mxCell id="N1mDc-vrhkv9pbBtjPSy-72" value="" style="verticalLabelPosition=bottom;sketch=0;aspect=fixed;html=1;verticalAlign=top;strokeColor=none;align=center;outlineConnect=0;shape=mxgraph.citrix.xenapp_server;" vertex="1" parent="N1mDc-vrhkv9pbBtjPSy-67">
          <mxGeometry x="210" y="30" width="85.39" height="100" as="geometry" />
        </mxCell>
        <mxCell id="N1mDc-vrhkv9pbBtjPSy-73" style="edgeStyle=orthogonalEdgeStyle;rounded=0;orthogonalLoop=1;jettySize=auto;html=1;entryX=0.88;entryY=0.5;entryDx=0;entryDy=0;entryPerimeter=0;" edge="1" parent="N1mDc-vrhkv9pbBtjPSy-67" source="N1mDc-vrhkv9pbBtjPSy-72" target="N1mDc-vrhkv9pbBtjPSy-69">
          <mxGeometry relative="1" as="geometry" />
        </mxCell>
        <mxCell id="N1mDc-vrhkv9pbBtjPSy-74" style="edgeStyle=orthogonalEdgeStyle;rounded=0;orthogonalLoop=1;jettySize=auto;html=1;entryX=0.5;entryY=0;entryDx=0;entryDy=0;entryPerimeter=0;" edge="1" parent="N1mDc-vrhkv9pbBtjPSy-67" source="N1mDc-vrhkv9pbBtjPSy-72" target="N1mDc-vrhkv9pbBtjPSy-71">
          <mxGeometry relative="1" as="geometry" />
        </mxCell>
        <mxCell id="N1mDc-vrhkv9pbBtjPSy-75" style="edgeStyle=orthogonalEdgeStyle;rounded=0;orthogonalLoop=1;jettySize=auto;html=1;" edge="1" parent="N1mDc-vrhkv9pbBtjPSy-67" source="N1mDc-vrhkv9pbBtjPSy-76" target="N1mDc-vrhkv9pbBtjPSy-69">
          <mxGeometry relative="1" as="geometry">
            <mxPoint x="126.59999999999991" y="230" as="sourcePoint" />
          </mxGeometry>
        </mxCell>
        <mxCell id="N1mDc-vrhkv9pbBtjPSy-76" value="" style="sketch=0;outlineConnect=0;fontColor=#232F3E;gradientColor=none;fillColor=#232F3D;strokeColor=none;dashed=0;verticalLabelPosition=bottom;verticalAlign=top;align=center;html=1;fontSize=12;fontStyle=0;aspect=fixed;pointerEvents=1;shape=mxgraph.aws4.source_code;" vertex="1" parent="N1mDc-vrhkv9pbBtjPSy-67">
          <mxGeometry x="45.75" y="228.13" width="68.5" height="93.74" as="geometry" />
        </mxCell>
        <mxCell id="N1mDc-vrhkv9pbBtjPSy-77" style="edgeStyle=orthogonalEdgeStyle;rounded=0;orthogonalLoop=1;jettySize=auto;html=1;entryX=0.5;entryY=0;entryDx=0;entryDy=0;" edge="1" parent="N1mDc-vrhkv9pbBtjPSy-67" source="N1mDc-vrhkv9pbBtjPSy-69" target="N1mDc-vrhkv9pbBtjPSy-76">
          <mxGeometry relative="1" as="geometry">
            <mxPoint x="80" y="220" as="targetPoint" />
          </mxGeometry>
        </mxCell>
        <mxCell id="N1mDc-vrhkv9pbBtjPSy-81" style="edgeStyle=orthogonalEdgeStyle;rounded=0;orthogonalLoop=1;jettySize=auto;html=1;" edge="1" parent="1" source="N1mDc-vrhkv9pbBtjPSy-80" target="N1mDc-vrhkv9pbBtjPSy-67">
          <mxGeometry relative="1" as="geometry" />
        </mxCell>
        <mxCell id="N1mDc-vrhkv9pbBtjPSy-82" style="edgeStyle=orthogonalEdgeStyle;rounded=0;orthogonalLoop=1;jettySize=auto;html=1;" edge="1" parent="1" source="N1mDc-vrhkv9pbBtjPSy-80" target="N1mDc-vrhkv9pbBtjPSy-55">
          <mxGeometry relative="1" as="geometry" />
        </mxCell>
        <mxCell id="N1mDc-vrhkv9pbBtjPSy-95" style="edgeStyle=orthogonalEdgeStyle;rounded=0;orthogonalLoop=1;jettySize=auto;html=1;" edge="1" parent="1" source="N1mDc-vrhkv9pbBtjPSy-80" target="N1mDc-vrhkv9pbBtjPSy-88">
          <mxGeometry relative="1" as="geometry">
            <Array as="points">
              <mxPoint x="190" y="940" />
            </Array>
          </mxGeometry>
        </mxCell>
        <mxCell id="N1mDc-vrhkv9pbBtjPSy-98" value="HTTP response (HTML or ERROR)" style="edgeLabel;html=1;align=center;verticalAlign=middle;resizable=0;points=[];" vertex="1" connectable="0" parent="N1mDc-vrhkv9pbBtjPSy-95">
          <mxGeometry x="-0.1719" y="2" relative="1" as="geometry">
            <mxPoint y="-3" as="offset" />
          </mxGeometry>
        </mxCell>
        <mxCell id="N1mDc-vrhkv9pbBtjPSy-80" value="" style="fillColor=#28A8E0;verticalLabelPosition=bottom;sketch=0;html=1;strokeColor=#ffffff;verticalAlign=top;align=center;points=[[0.145,0.145,0],[0.5,0,0],[0.855,0.145,0],[1,0.5,0],[0.855,0.855,0],[0.5,1,0],[0.145,0.855,0],[0,0.5,0]];pointerEvents=1;shape=mxgraph.cisco_safe.compositeIcon;bgIcon=ellipse;resIcon=mxgraph.cisco_safe.capability.load_balancer;direction=south;" vertex="1" parent="1">
          <mxGeometry x="425" y="880" width="65" height="73" as="geometry" />
        </mxCell>
        <mxCell id="N1mDc-vrhkv9pbBtjPSy-85" style="edgeStyle=orthogonalEdgeStyle;rounded=0;orthogonalLoop=1;jettySize=auto;html=1;curved=1;" edge="1" parent="1" source="N1mDc-vrhkv9pbBtjPSy-88" target="N1mDc-vrhkv9pbBtjPSy-91">
          <mxGeometry relative="1" as="geometry" />
        </mxCell>
        <mxCell id="N1mDc-vrhkv9pbBtjPSy-86" value="www.foobar.com" style="edgeLabel;html=1;align=center;verticalAlign=middle;resizable=0;points=[];" vertex="1" connectable="0" parent="N1mDc-vrhkv9pbBtjPSy-85">
          <mxGeometry x="0.2121" y="-10" relative="1" as="geometry">
            <mxPoint x="-10" y="-14" as="offset" />
          </mxGeometry>
        </mxCell>
        <mxCell id="N1mDc-vrhkv9pbBtjPSy-88" value="" style="sketch=0;pointerEvents=1;shadow=0;dashed=0;html=1;strokeColor=none;fillColor=#434445;aspect=fixed;labelPosition=center;verticalLabelPosition=bottom;verticalAlign=top;align=center;outlineConnect=0;shape=mxgraph.vvd.web_browser;" vertex="1" parent="1">
          <mxGeometry x="140" y="830" width="84.5" height="60" as="geometry" />
        </mxCell>
        <mxCell id="N1mDc-vrhkv9pbBtjPSy-89" style="edgeStyle=orthogonalEdgeStyle;rounded=0;orthogonalLoop=1;jettySize=auto;html=1;curved=1;" edge="1" parent="1" source="N1mDc-vrhkv9pbBtjPSy-91" target="N1mDc-vrhkv9pbBtjPSy-88">
          <mxGeometry relative="1" as="geometry" />
        </mxCell>
        <mxCell id="N1mDc-vrhkv9pbBtjPSy-90" value="8.8.8.8" style="edgeLabel;html=1;align=center;verticalAlign=middle;resizable=0;points=[];" vertex="1" connectable="0" parent="N1mDc-vrhkv9pbBtjPSy-89">
          <mxGeometry x="-0.3301" y="-9" relative="1" as="geometry">
            <mxPoint x="12" y="12" as="offset" />
          </mxGeometry>
        </mxCell>
        <mxCell id="N1mDc-vrhkv9pbBtjPSy-91" value="" style="sketch=0;pointerEvents=1;shadow=0;dashed=0;html=1;strokeColor=none;fillColor=#005F4B;labelPosition=center;verticalLabelPosition=bottom;verticalAlign=top;align=center;outlineConnect=0;shape=mxgraph.veeam2.dns;" vertex="1" parent="1">
          <mxGeometry x="40" y="720" width="60" height="58" as="geometry" />
        </mxCell>
        <mxCell id="N1mDc-vrhkv9pbBtjPSy-94" style="edgeStyle=orthogonalEdgeStyle;rounded=0;orthogonalLoop=1;jettySize=auto;html=1;entryX=0;entryY=0.5;entryDx=0;entryDy=0;entryPerimeter=0;" edge="1" parent="1" source="N1mDc-vrhkv9pbBtjPSy-88" target="N1mDc-vrhkv9pbBtjPSy-80">
          <mxGeometry relative="1" as="geometry" />
        </mxCell>
        <mxCell id="N1mDc-vrhkv9pbBtjPSy-97" value="HTTP request to 8.8.8.8" style="edgeLabel;html=1;align=center;verticalAlign=middle;resizable=0;points=[];" vertex="1" connectable="0" parent="N1mDc-vrhkv9pbBtjPSy-94">
          <mxGeometry x="-0.3478" y="-2" relative="1" as="geometry">
            <mxPoint x="30" y="-2" as="offset" />
          </mxGeometry>
        </mxCell>
        <mxCell id="N1mDc-vrhkv9pbBtjPSy-217" style="edgeStyle=orthogonalEdgeStyle;rounded=0;orthogonalLoop=1;jettySize=auto;html=1;exitX=0.5;exitY=0;exitDx=0;exitDy=0;" edge="1" parent="1" source="N1mDc-vrhkv9pbBtjPSy-99" target="N1mDc-vrhkv9pbBtjPSy-202">
          <mxGeometry relative="1" as="geometry" />
        </mxCell>
        <mxCell id="N1mDc-vrhkv9pbBtjPSy-99" value="Server 2" style="points=[[0,0],[0.25,0],[0.5,0],[0.75,0],[1,0],[1,0.25],[1,0.5],[1,0.75],[1,1],[0.75,1],[0.5,1],[0.25,1],[0,1],[0,0.75],[0,0.5],[0,0.25]];outlineConnect=0;gradientColor=none;html=1;whiteSpace=wrap;fontSize=12;fontStyle=0;container=1;pointerEvents=0;collapsible=0;recursiveResize=0;shape=mxgraph.aws4.group;grIcon=mxgraph.aws4.group_on_premise;strokeColor=#7D8998;fillColor=none;verticalAlign=top;align=left;spacingLeft=30;fontColor=#5A6C86;dashed=0;" vertex="1" parent="1">
          <mxGeometry x="1483" y="1290" width="350" height="380" as="geometry" />
        </mxCell>
        <mxCell id="N1mDc-vrhkv9pbBtjPSy-100" style="edgeStyle=orthogonalEdgeStyle;rounded=0;orthogonalLoop=1;jettySize=auto;html=1;exitX=0.88;exitY=0.5;exitDx=0;exitDy=0;exitPerimeter=0;" edge="1" parent="N1mDc-vrhkv9pbBtjPSy-99" source="N1mDc-vrhkv9pbBtjPSy-101" target="N1mDc-vrhkv9pbBtjPSy-104">
          <mxGeometry relative="1" as="geometry" />
        </mxCell>
        <mxCell id="N1mDc-vrhkv9pbBtjPSy-101" value="NGNIX" style="fontColor=#0066CC;verticalAlign=top;verticalLabelPosition=bottom;labelPosition=center;align=center;html=1;outlineConnect=0;fillColor=#CCCCCC;strokeColor=#6881B3;gradientColor=none;gradientDirection=north;strokeWidth=2;shape=mxgraph.networks.web_server;" vertex="1" parent="N1mDc-vrhkv9pbBtjPSy-99">
          <mxGeometry x="40" y="30" width="80" height="100" as="geometry" />
        </mxCell>
        <mxCell id="N1mDc-vrhkv9pbBtjPSy-102" style="edgeStyle=orthogonalEdgeStyle;rounded=0;orthogonalLoop=1;jettySize=auto;html=1;" edge="1" parent="N1mDc-vrhkv9pbBtjPSy-99" source="N1mDc-vrhkv9pbBtjPSy-103" target="N1mDc-vrhkv9pbBtjPSy-104">
          <mxGeometry relative="1" as="geometry" />
        </mxCell>
        <mxCell id="N1mDc-vrhkv9pbBtjPSy-103" value="MYSQL" style="fontColor=#0066CC;verticalAlign=top;verticalLabelPosition=bottom;labelPosition=center;align=center;html=1;outlineConnect=0;fillColor=#CCCCCC;strokeColor=#6881B3;gradientColor=none;gradientDirection=north;strokeWidth=2;shape=mxgraph.networks.storage;" vertex="1" parent="N1mDc-vrhkv9pbBtjPSy-99">
          <mxGeometry x="212" y="220" width="80" height="110" as="geometry" />
        </mxCell>
        <mxCell id="N1mDc-vrhkv9pbBtjPSy-104" value="" style="verticalLabelPosition=bottom;sketch=0;aspect=fixed;html=1;verticalAlign=top;strokeColor=none;align=center;outlineConnect=0;shape=mxgraph.citrix.xenapp_server;" vertex="1" parent="N1mDc-vrhkv9pbBtjPSy-99">
          <mxGeometry x="210" y="30" width="85.39" height="100" as="geometry" />
        </mxCell>
        <mxCell id="N1mDc-vrhkv9pbBtjPSy-105" style="edgeStyle=orthogonalEdgeStyle;rounded=0;orthogonalLoop=1;jettySize=auto;html=1;entryX=0.88;entryY=0.5;entryDx=0;entryDy=0;entryPerimeter=0;" edge="1" parent="N1mDc-vrhkv9pbBtjPSy-99" source="N1mDc-vrhkv9pbBtjPSy-104" target="N1mDc-vrhkv9pbBtjPSy-101">
          <mxGeometry relative="1" as="geometry" />
        </mxCell>
        <mxCell id="N1mDc-vrhkv9pbBtjPSy-106" style="edgeStyle=orthogonalEdgeStyle;rounded=0;orthogonalLoop=1;jettySize=auto;html=1;entryX=0.5;entryY=0;entryDx=0;entryDy=0;entryPerimeter=0;" edge="1" parent="N1mDc-vrhkv9pbBtjPSy-99" source="N1mDc-vrhkv9pbBtjPSy-104" target="N1mDc-vrhkv9pbBtjPSy-103">
          <mxGeometry relative="1" as="geometry" />
        </mxCell>
        <mxCell id="N1mDc-vrhkv9pbBtjPSy-107" style="edgeStyle=orthogonalEdgeStyle;rounded=0;orthogonalLoop=1;jettySize=auto;html=1;" edge="1" parent="N1mDc-vrhkv9pbBtjPSy-99" source="N1mDc-vrhkv9pbBtjPSy-108" target="N1mDc-vrhkv9pbBtjPSy-101">
          <mxGeometry relative="1" as="geometry">
            <mxPoint x="126.59999999999991" y="230" as="sourcePoint" />
          </mxGeometry>
        </mxCell>
        <mxCell id="N1mDc-vrhkv9pbBtjPSy-108" value="" style="sketch=0;outlineConnect=0;fontColor=#232F3E;gradientColor=none;fillColor=#232F3D;strokeColor=none;dashed=0;verticalLabelPosition=bottom;verticalAlign=top;align=center;html=1;fontSize=12;fontStyle=0;aspect=fixed;pointerEvents=1;shape=mxgraph.aws4.source_code;" vertex="1" parent="N1mDc-vrhkv9pbBtjPSy-99">
          <mxGeometry x="45.75" y="228.13" width="68.5" height="93.74" as="geometry" />
        </mxCell>
        <mxCell id="N1mDc-vrhkv9pbBtjPSy-109" style="edgeStyle=orthogonalEdgeStyle;rounded=0;orthogonalLoop=1;jettySize=auto;html=1;entryX=0.5;entryY=0;entryDx=0;entryDy=0;" edge="1" parent="N1mDc-vrhkv9pbBtjPSy-99" source="N1mDc-vrhkv9pbBtjPSy-101" target="N1mDc-vrhkv9pbBtjPSy-108">
          <mxGeometry relative="1" as="geometry">
            <mxPoint x="80" y="220" as="targetPoint" />
          </mxGeometry>
        </mxCell>
        <mxCell id="N1mDc-vrhkv9pbBtjPSy-110" value="Server 1" style="points=[[0,0],[0.25,0],[0.5,0],[0.75,0],[1,0],[1,0.25],[1,0.5],[1,0.75],[1,1],[0.75,1],[0.5,1],[0.25,1],[0,1],[0,0.75],[0,0.5],[0,0.25]];outlineConnect=0;gradientColor=none;html=1;whiteSpace=wrap;fontSize=12;fontStyle=0;container=1;pointerEvents=0;collapsible=0;recursiveResize=0;shape=mxgraph.aws4.group;grIcon=mxgraph.aws4.group_on_premise;strokeColor=#7D8998;fillColor=none;verticalAlign=top;align=left;spacingLeft=30;fontColor=#5A6C86;dashed=0;" vertex="1" parent="1">
          <mxGeometry x="1060" y="1290" width="350" height="380" as="geometry" />
        </mxCell>
        <mxCell id="N1mDc-vrhkv9pbBtjPSy-111" style="edgeStyle=orthogonalEdgeStyle;rounded=0;orthogonalLoop=1;jettySize=auto;html=1;exitX=0.88;exitY=0.5;exitDx=0;exitDy=0;exitPerimeter=0;" edge="1" parent="N1mDc-vrhkv9pbBtjPSy-110" source="N1mDc-vrhkv9pbBtjPSy-112" target="N1mDc-vrhkv9pbBtjPSy-115">
          <mxGeometry relative="1" as="geometry" />
        </mxCell>
        <mxCell id="N1mDc-vrhkv9pbBtjPSy-112" value="NGNIX" style="fontColor=#0066CC;verticalAlign=top;verticalLabelPosition=bottom;labelPosition=center;align=center;html=1;outlineConnect=0;fillColor=#CCCCCC;strokeColor=#6881B3;gradientColor=none;gradientDirection=north;strokeWidth=2;shape=mxgraph.networks.web_server;" vertex="1" parent="N1mDc-vrhkv9pbBtjPSy-110">
          <mxGeometry x="40" y="30" width="80" height="100" as="geometry" />
        </mxCell>
        <mxCell id="N1mDc-vrhkv9pbBtjPSy-113" style="edgeStyle=orthogonalEdgeStyle;rounded=0;orthogonalLoop=1;jettySize=auto;html=1;" edge="1" parent="N1mDc-vrhkv9pbBtjPSy-110" source="N1mDc-vrhkv9pbBtjPSy-114" target="N1mDc-vrhkv9pbBtjPSy-115">
          <mxGeometry relative="1" as="geometry" />
        </mxCell>
        <mxCell id="N1mDc-vrhkv9pbBtjPSy-114" value="MYSQL" style="fontColor=#0066CC;verticalAlign=top;verticalLabelPosition=bottom;labelPosition=center;align=center;html=1;outlineConnect=0;fillColor=#CCCCCC;strokeColor=#6881B3;gradientColor=none;gradientDirection=north;strokeWidth=2;shape=mxgraph.networks.storage;" vertex="1" parent="N1mDc-vrhkv9pbBtjPSy-110">
          <mxGeometry x="212" y="220" width="80" height="110" as="geometry" />
        </mxCell>
        <mxCell id="N1mDc-vrhkv9pbBtjPSy-115" value="" style="verticalLabelPosition=bottom;sketch=0;aspect=fixed;html=1;verticalAlign=top;strokeColor=none;align=center;outlineConnect=0;shape=mxgraph.citrix.xenapp_server;" vertex="1" parent="N1mDc-vrhkv9pbBtjPSy-110">
          <mxGeometry x="210" y="30" width="85.39" height="100" as="geometry" />
        </mxCell>
        <mxCell id="N1mDc-vrhkv9pbBtjPSy-116" style="edgeStyle=orthogonalEdgeStyle;rounded=0;orthogonalLoop=1;jettySize=auto;html=1;entryX=0.88;entryY=0.5;entryDx=0;entryDy=0;entryPerimeter=0;" edge="1" parent="N1mDc-vrhkv9pbBtjPSy-110" source="N1mDc-vrhkv9pbBtjPSy-115" target="N1mDc-vrhkv9pbBtjPSy-112">
          <mxGeometry relative="1" as="geometry" />
        </mxCell>
        <mxCell id="N1mDc-vrhkv9pbBtjPSy-117" style="edgeStyle=orthogonalEdgeStyle;rounded=0;orthogonalLoop=1;jettySize=auto;html=1;entryX=0.5;entryY=0;entryDx=0;entryDy=0;entryPerimeter=0;" edge="1" parent="N1mDc-vrhkv9pbBtjPSy-110" source="N1mDc-vrhkv9pbBtjPSy-115" target="N1mDc-vrhkv9pbBtjPSy-114">
          <mxGeometry relative="1" as="geometry" />
        </mxCell>
        <mxCell id="N1mDc-vrhkv9pbBtjPSy-118" style="edgeStyle=orthogonalEdgeStyle;rounded=0;orthogonalLoop=1;jettySize=auto;html=1;" edge="1" parent="N1mDc-vrhkv9pbBtjPSy-110" source="N1mDc-vrhkv9pbBtjPSy-119" target="N1mDc-vrhkv9pbBtjPSy-112">
          <mxGeometry relative="1" as="geometry">
            <mxPoint x="126.59999999999991" y="230" as="sourcePoint" />
          </mxGeometry>
        </mxCell>
        <mxCell id="N1mDc-vrhkv9pbBtjPSy-119" value="" style="sketch=0;outlineConnect=0;fontColor=#232F3E;gradientColor=none;fillColor=#232F3D;strokeColor=none;dashed=0;verticalLabelPosition=bottom;verticalAlign=top;align=center;html=1;fontSize=12;fontStyle=0;aspect=fixed;pointerEvents=1;shape=mxgraph.aws4.source_code;" vertex="1" parent="N1mDc-vrhkv9pbBtjPSy-110">
          <mxGeometry x="45.75" y="228.13" width="68.5" height="93.74" as="geometry" />
        </mxCell>
        <mxCell id="N1mDc-vrhkv9pbBtjPSy-120" style="edgeStyle=orthogonalEdgeStyle;rounded=0;orthogonalLoop=1;jettySize=auto;html=1;entryX=0.5;entryY=0;entryDx=0;entryDy=0;" edge="1" parent="N1mDc-vrhkv9pbBtjPSy-110" source="N1mDc-vrhkv9pbBtjPSy-112" target="N1mDc-vrhkv9pbBtjPSy-119">
          <mxGeometry relative="1" as="geometry">
            <mxPoint x="80" y="220" as="targetPoint" />
          </mxGeometry>
        </mxCell>
        <mxCell id="N1mDc-vrhkv9pbBtjPSy-241" style="edgeStyle=orthogonalEdgeStyle;rounded=0;orthogonalLoop=1;jettySize=auto;html=1;entryX=0.5;entryY=1;entryDx=0;entryDy=0;" edge="1" parent="1" source="N1mDc-vrhkv9pbBtjPSy-125" target="N1mDc-vrhkv9pbBtjPSy-221">
          <mxGeometry relative="1" as="geometry" />
        </mxCell>
        <mxCell id="N1mDc-vrhkv9pbBtjPSy-125" value="" style="fillColor=#28A8E0;verticalLabelPosition=bottom;sketch=0;html=1;strokeColor=#ffffff;verticalAlign=top;align=center;points=[[0.145,0.145,0],[0.5,0,0],[0.855,0.145,0],[1,0.5,0],[0.855,0.855,0],[0.5,1,0],[0.145,0.855,0],[0,0.5,0]];pointerEvents=1;shape=mxgraph.cisco_safe.compositeIcon;bgIcon=ellipse;resIcon=mxgraph.cisco_safe.capability.load_balancer;direction=south;" vertex="1" parent="1">
          <mxGeometry x="1599" y="900" width="65" height="73" as="geometry" />
        </mxCell>
        <mxCell id="N1mDc-vrhkv9pbBtjPSy-128" value="" style="sketch=0;pointerEvents=1;shadow=0;dashed=0;html=1;strokeColor=none;fillColor=#434445;aspect=fixed;labelPosition=center;verticalLabelPosition=bottom;verticalAlign=top;align=center;outlineConnect=0;shape=mxgraph.vvd.web_browser;" vertex="1" parent="1">
          <mxGeometry x="1398.5" y="560" width="84.5" height="60" as="geometry" />
        </mxCell>
        <mxCell id="N1mDc-vrhkv9pbBtjPSy-242" style="rounded=0;orthogonalLoop=1;jettySize=auto;html=1;entryX=0.5;entryY=0;entryDx=0;entryDy=0;" edge="1" parent="1" source="N1mDc-vrhkv9pbBtjPSy-131" target="N1mDc-vrhkv9pbBtjPSy-221">
          <mxGeometry relative="1" as="geometry" />
        </mxCell>
        <mxCell id="N1mDc-vrhkv9pbBtjPSy-131" value="" style="sketch=0;pointerEvents=1;shadow=0;dashed=0;html=1;strokeColor=none;fillColor=#005F4B;labelPosition=center;verticalLabelPosition=bottom;verticalAlign=top;align=center;outlineConnect=0;shape=mxgraph.veeam2.dns;" vertex="1" parent="1">
          <mxGeometry x="1664" y="602" width="60" height="58" as="geometry" />
        </mxCell>
        <mxCell id="N1mDc-vrhkv9pbBtjPSy-220" style="edgeStyle=orthogonalEdgeStyle;rounded=0;orthogonalLoop=1;jettySize=auto;html=1;exitX=0.5;exitY=0;exitDx=0;exitDy=0;" edge="1" parent="1" source="N1mDc-vrhkv9pbBtjPSy-169">
          <mxGeometry relative="1" as="geometry">
            <mxPoint x="2030" y="1200" as="targetPoint" />
          </mxGeometry>
        </mxCell>
        <mxCell id="N1mDc-vrhkv9pbBtjPSy-169" value="Server 2" style="points=[[0,0],[0.25,0],[0.5,0],[0.75,0],[1,0],[1,0.25],[1,0.5],[1,0.75],[1,1],[0.75,1],[0.5,1],[0.25,1],[0,1],[0,0.75],[0,0.5],[0,0.25]];outlineConnect=0;gradientColor=none;html=1;whiteSpace=wrap;fontSize=12;fontStyle=0;container=1;pointerEvents=0;collapsible=0;recursiveResize=0;shape=mxgraph.aws4.group;grIcon=mxgraph.aws4.group_on_premise;strokeColor=#7D8998;fillColor=none;verticalAlign=top;align=left;spacingLeft=30;fontColor=#5A6C86;dashed=0;" vertex="1" parent="1">
          <mxGeometry x="1903" y="1290" width="350" height="380" as="geometry" />
        </mxCell>
        <mxCell id="N1mDc-vrhkv9pbBtjPSy-170" style="edgeStyle=orthogonalEdgeStyle;rounded=0;orthogonalLoop=1;jettySize=auto;html=1;exitX=0.88;exitY=0.5;exitDx=0;exitDy=0;exitPerimeter=0;" edge="1" parent="N1mDc-vrhkv9pbBtjPSy-169" source="N1mDc-vrhkv9pbBtjPSy-171" target="N1mDc-vrhkv9pbBtjPSy-174">
          <mxGeometry relative="1" as="geometry" />
        </mxCell>
        <mxCell id="N1mDc-vrhkv9pbBtjPSy-171" value="NGNIX" style="fontColor=#0066CC;verticalAlign=top;verticalLabelPosition=bottom;labelPosition=center;align=center;html=1;outlineConnect=0;fillColor=#CCCCCC;strokeColor=#6881B3;gradientColor=none;gradientDirection=north;strokeWidth=2;shape=mxgraph.networks.web_server;" vertex="1" parent="N1mDc-vrhkv9pbBtjPSy-169">
          <mxGeometry x="40" y="30" width="80" height="100" as="geometry" />
        </mxCell>
        <mxCell id="N1mDc-vrhkv9pbBtjPSy-172" style="edgeStyle=orthogonalEdgeStyle;rounded=0;orthogonalLoop=1;jettySize=auto;html=1;" edge="1" parent="N1mDc-vrhkv9pbBtjPSy-169" source="N1mDc-vrhkv9pbBtjPSy-173" target="N1mDc-vrhkv9pbBtjPSy-174">
          <mxGeometry relative="1" as="geometry" />
        </mxCell>
        <mxCell id="N1mDc-vrhkv9pbBtjPSy-173" value="MYSQL" style="fontColor=#0066CC;verticalAlign=top;verticalLabelPosition=bottom;labelPosition=center;align=center;html=1;outlineConnect=0;fillColor=#CCCCCC;strokeColor=#6881B3;gradientColor=none;gradientDirection=north;strokeWidth=2;shape=mxgraph.networks.storage;" vertex="1" parent="N1mDc-vrhkv9pbBtjPSy-169">
          <mxGeometry x="212" y="220" width="80" height="110" as="geometry" />
        </mxCell>
        <mxCell id="N1mDc-vrhkv9pbBtjPSy-174" value="" style="verticalLabelPosition=bottom;sketch=0;aspect=fixed;html=1;verticalAlign=top;strokeColor=none;align=center;outlineConnect=0;shape=mxgraph.citrix.xenapp_server;" vertex="1" parent="N1mDc-vrhkv9pbBtjPSy-169">
          <mxGeometry x="210" y="30" width="85.39" height="100" as="geometry" />
        </mxCell>
        <mxCell id="N1mDc-vrhkv9pbBtjPSy-175" style="edgeStyle=orthogonalEdgeStyle;rounded=0;orthogonalLoop=1;jettySize=auto;html=1;entryX=0.88;entryY=0.5;entryDx=0;entryDy=0;entryPerimeter=0;" edge="1" parent="N1mDc-vrhkv9pbBtjPSy-169" source="N1mDc-vrhkv9pbBtjPSy-174" target="N1mDc-vrhkv9pbBtjPSy-171">
          <mxGeometry relative="1" as="geometry" />
        </mxCell>
        <mxCell id="N1mDc-vrhkv9pbBtjPSy-176" style="edgeStyle=orthogonalEdgeStyle;rounded=0;orthogonalLoop=1;jettySize=auto;html=1;entryX=0.5;entryY=0;entryDx=0;entryDy=0;entryPerimeter=0;" edge="1" parent="N1mDc-vrhkv9pbBtjPSy-169" source="N1mDc-vrhkv9pbBtjPSy-174" target="N1mDc-vrhkv9pbBtjPSy-173">
          <mxGeometry relative="1" as="geometry" />
        </mxCell>
        <mxCell id="N1mDc-vrhkv9pbBtjPSy-177" style="edgeStyle=orthogonalEdgeStyle;rounded=0;orthogonalLoop=1;jettySize=auto;html=1;" edge="1" parent="N1mDc-vrhkv9pbBtjPSy-169" source="N1mDc-vrhkv9pbBtjPSy-178" target="N1mDc-vrhkv9pbBtjPSy-171">
          <mxGeometry relative="1" as="geometry">
            <mxPoint x="126.59999999999991" y="230" as="sourcePoint" />
          </mxGeometry>
        </mxCell>
        <mxCell id="N1mDc-vrhkv9pbBtjPSy-178" value="" style="sketch=0;outlineConnect=0;fontColor=#232F3E;gradientColor=none;fillColor=#232F3D;strokeColor=none;dashed=0;verticalLabelPosition=bottom;verticalAlign=top;align=center;html=1;fontSize=12;fontStyle=0;aspect=fixed;pointerEvents=1;shape=mxgraph.aws4.source_code;" vertex="1" parent="N1mDc-vrhkv9pbBtjPSy-169">
          <mxGeometry x="45.75" y="228.13" width="68.5" height="93.74" as="geometry" />
        </mxCell>
        <mxCell id="N1mDc-vrhkv9pbBtjPSy-179" style="edgeStyle=orthogonalEdgeStyle;rounded=0;orthogonalLoop=1;jettySize=auto;html=1;entryX=0.5;entryY=0;entryDx=0;entryDy=0;" edge="1" parent="N1mDc-vrhkv9pbBtjPSy-169" source="N1mDc-vrhkv9pbBtjPSy-171" target="N1mDc-vrhkv9pbBtjPSy-178">
          <mxGeometry relative="1" as="geometry">
            <mxPoint x="80" y="220" as="targetPoint" />
          </mxGeometry>
        </mxCell>
        <mxCell id="N1mDc-vrhkv9pbBtjPSy-192" value="Monitoring Client" style="fontColor=#0066CC;verticalAlign=top;verticalLabelPosition=bottom;labelPosition=center;align=center;html=1;outlineConnect=0;fillColor=#CCCCCC;strokeColor=#6881B3;gradientColor=none;gradientDirection=north;strokeWidth=2;shape=mxgraph.networks.terminal;" vertex="1" parent="1">
          <mxGeometry x="1234.5" y="1050" width="62" height="50" as="geometry" />
        </mxCell>
        <mxCell id="N1mDc-vrhkv9pbBtjPSy-193" style="edgeStyle=orthogonalEdgeStyle;rounded=0;orthogonalLoop=1;jettySize=auto;html=1;exitX=0.855;exitY=0.855;exitDx=0;exitDy=0;exitPerimeter=0;entryX=0.5;entryY=0;entryDx=0;entryDy=0;entryPerimeter=0;" edge="1" parent="1" source="N1mDc-vrhkv9pbBtjPSy-125" target="N1mDc-vrhkv9pbBtjPSy-192">
          <mxGeometry relative="1" as="geometry">
            <mxPoint x="1259" y="1090" as="targetPoint" />
          </mxGeometry>
        </mxCell>
        <mxCell id="N1mDc-vrhkv9pbBtjPSy-194" style="edgeStyle=orthogonalEdgeStyle;rounded=0;orthogonalLoop=1;jettySize=auto;html=1;exitX=1;exitY=0.5;exitDx=0;exitDy=0;exitPerimeter=0;" edge="1" parent="1" source="N1mDc-vrhkv9pbBtjPSy-125" target="N1mDc-vrhkv9pbBtjPSy-204">
          <mxGeometry relative="1" as="geometry">
            <mxPoint x="1631" y="1090" as="targetPoint" />
          </mxGeometry>
        </mxCell>
        <mxCell id="N1mDc-vrhkv9pbBtjPSy-195" style="edgeStyle=orthogonalEdgeStyle;rounded=0;orthogonalLoop=1;jettySize=auto;html=1;exitX=0.855;exitY=0.145;exitDx=0;exitDy=0;exitPerimeter=0;" edge="1" parent="1" source="N1mDc-vrhkv9pbBtjPSy-125" target="N1mDc-vrhkv9pbBtjPSy-205">
          <mxGeometry relative="1" as="geometry">
            <mxPoint x="2062" y="1090" as="targetPoint" />
          </mxGeometry>
        </mxCell>
        <mxCell id="N1mDc-vrhkv9pbBtjPSy-215" style="edgeStyle=orthogonalEdgeStyle;rounded=0;orthogonalLoop=1;jettySize=auto;html=1;exitX=0.5;exitY=1;exitDx=0;exitDy=0;exitPerimeter=0;" edge="1" parent="1" source="N1mDc-vrhkv9pbBtjPSy-201" target="N1mDc-vrhkv9pbBtjPSy-110">
          <mxGeometry relative="1" as="geometry" />
        </mxCell>
        <mxCell id="N1mDc-vrhkv9pbBtjPSy-201" value="" style="fontColor=#0066CC;verticalAlign=top;verticalLabelPosition=bottom;labelPosition=center;align=center;html=1;outlineConnect=0;fillColor=#CCCCCC;strokeColor=#6881B3;gradientColor=none;gradientDirection=north;strokeWidth=2;shape=mxgraph.networks.firewall;" vertex="1" parent="1">
          <mxGeometry x="1236.5" y="1150" width="58" height="50" as="geometry" />
        </mxCell>
        <mxCell id="N1mDc-vrhkv9pbBtjPSy-218" style="edgeStyle=orthogonalEdgeStyle;rounded=0;orthogonalLoop=1;jettySize=auto;html=1;exitX=0.5;exitY=1;exitDx=0;exitDy=0;exitPerimeter=0;entryX=0.5;entryY=0;entryDx=0;entryDy=0;" edge="1" parent="1" source="N1mDc-vrhkv9pbBtjPSy-202" target="N1mDc-vrhkv9pbBtjPSy-99">
          <mxGeometry relative="1" as="geometry" />
        </mxCell>
        <mxCell id="N1mDc-vrhkv9pbBtjPSy-202" value="" style="fontColor=#0066CC;verticalAlign=top;verticalLabelPosition=bottom;labelPosition=center;align=center;html=1;outlineConnect=0;fillColor=#CCCCCC;strokeColor=#6881B3;gradientColor=none;gradientDirection=north;strokeWidth=2;shape=mxgraph.networks.firewall;" vertex="1" parent="1">
          <mxGeometry x="1602.5" y="1150" width="58" height="50" as="geometry" />
        </mxCell>
        <mxCell id="N1mDc-vrhkv9pbBtjPSy-219" style="edgeStyle=orthogonalEdgeStyle;rounded=0;orthogonalLoop=1;jettySize=auto;html=1;exitX=0.5;exitY=1;exitDx=0;exitDy=0;exitPerimeter=0;" edge="1" parent="1" source="N1mDc-vrhkv9pbBtjPSy-203" target="N1mDc-vrhkv9pbBtjPSy-169">
          <mxGeometry relative="1" as="geometry" />
        </mxCell>
        <mxCell id="N1mDc-vrhkv9pbBtjPSy-203" value="" style="fontColor=#0066CC;verticalAlign=top;verticalLabelPosition=bottom;labelPosition=center;align=center;html=1;outlineConnect=0;fillColor=#CCCCCC;strokeColor=#6881B3;gradientColor=none;gradientDirection=north;strokeWidth=2;shape=mxgraph.networks.firewall;" vertex="1" parent="1">
          <mxGeometry x="2002" y="1150" width="58" height="50" as="geometry" />
        </mxCell>
        <mxCell id="N1mDc-vrhkv9pbBtjPSy-204" value="Monitoring Client" style="fontColor=#0066CC;verticalAlign=top;verticalLabelPosition=bottom;labelPosition=center;align=center;html=1;outlineConnect=0;fillColor=#CCCCCC;strokeColor=#6881B3;gradientColor=none;gradientDirection=north;strokeWidth=2;shape=mxgraph.networks.terminal;" vertex="1" parent="1">
          <mxGeometry x="1600.5" y="1050" width="62" height="50" as="geometry" />
        </mxCell>
        <mxCell id="N1mDc-vrhkv9pbBtjPSy-208" style="edgeStyle=orthogonalEdgeStyle;rounded=0;orthogonalLoop=1;jettySize=auto;html=1;exitX=0.5;exitY=1;exitDx=0;exitDy=0;exitPerimeter=0;" edge="1" parent="1" source="N1mDc-vrhkv9pbBtjPSy-205" target="N1mDc-vrhkv9pbBtjPSy-203">
          <mxGeometry relative="1" as="geometry" />
        </mxCell>
        <mxCell id="N1mDc-vrhkv9pbBtjPSy-205" value="Monitoring Client" style="fontColor=#0066CC;verticalAlign=top;verticalLabelPosition=bottom;labelPosition=center;align=center;html=1;outlineConnect=0;fillColor=#CCCCCC;strokeColor=#6881B3;gradientColor=none;gradientDirection=north;strokeWidth=2;shape=mxgraph.networks.terminal;" vertex="1" parent="1">
          <mxGeometry x="2000" y="1050" width="62" height="50" as="geometry" />
        </mxCell>
        <mxCell id="N1mDc-vrhkv9pbBtjPSy-206" style="edgeStyle=orthogonalEdgeStyle;rounded=0;orthogonalLoop=1;jettySize=auto;html=1;exitX=0.5;exitY=1;exitDx=0;exitDy=0;exitPerimeter=0;entryX=0.5;entryY=0;entryDx=0;entryDy=0;entryPerimeter=0;" edge="1" parent="1" source="N1mDc-vrhkv9pbBtjPSy-192" target="N1mDc-vrhkv9pbBtjPSy-201">
          <mxGeometry relative="1" as="geometry" />
        </mxCell>
        <mxCell id="N1mDc-vrhkv9pbBtjPSy-207" style="edgeStyle=orthogonalEdgeStyle;rounded=0;orthogonalLoop=1;jettySize=auto;html=1;exitX=0.5;exitY=1;exitDx=0;exitDy=0;exitPerimeter=0;entryX=0.5;entryY=0;entryDx=0;entryDy=0;entryPerimeter=0;" edge="1" parent="1" source="N1mDc-vrhkv9pbBtjPSy-204" target="N1mDc-vrhkv9pbBtjPSy-202">
          <mxGeometry relative="1" as="geometry" />
        </mxCell>
        <mxCell id="N1mDc-vrhkv9pbBtjPSy-209" style="edgeStyle=orthogonalEdgeStyle;rounded=0;orthogonalLoop=1;jettySize=auto;html=1;exitX=0.5;exitY=0;exitDx=0;exitDy=0;exitPerimeter=0;entryX=1;entryY=0.5;entryDx=0;entryDy=0;entryPerimeter=0;" edge="1" parent="1" source="N1mDc-vrhkv9pbBtjPSy-204" target="N1mDc-vrhkv9pbBtjPSy-125">
          <mxGeometry relative="1" as="geometry" />
        </mxCell>
        <mxCell id="N1mDc-vrhkv9pbBtjPSy-210" style="edgeStyle=orthogonalEdgeStyle;rounded=0;orthogonalLoop=1;jettySize=auto;html=1;exitX=0.5;exitY=0;exitDx=0;exitDy=0;exitPerimeter=0;entryX=0.855;entryY=0.855;entryDx=0;entryDy=0;entryPerimeter=0;" edge="1" parent="1" source="N1mDc-vrhkv9pbBtjPSy-192" target="N1mDc-vrhkv9pbBtjPSy-125">
          <mxGeometry relative="1" as="geometry">
            <Array as="points">
              <mxPoint x="1266" y="962" />
            </Array>
          </mxGeometry>
        </mxCell>
        <mxCell id="N1mDc-vrhkv9pbBtjPSy-211" style="edgeStyle=orthogonalEdgeStyle;rounded=0;orthogonalLoop=1;jettySize=auto;html=1;exitX=0.5;exitY=0;exitDx=0;exitDy=0;exitPerimeter=0;entryX=0.855;entryY=0.145;entryDx=0;entryDy=0;entryPerimeter=0;" edge="1" parent="1" source="N1mDc-vrhkv9pbBtjPSy-205" target="N1mDc-vrhkv9pbBtjPSy-125">
          <mxGeometry relative="1" as="geometry">
            <Array as="points">
              <mxPoint x="2031" y="962" />
            </Array>
          </mxGeometry>
        </mxCell>
        <mxCell id="N1mDc-vrhkv9pbBtjPSy-212" style="edgeStyle=orthogonalEdgeStyle;rounded=0;orthogonalLoop=1;jettySize=auto;html=1;exitX=0.5;exitY=0;exitDx=0;exitDy=0;exitPerimeter=0;entryX=0.5;entryY=1;entryDx=0;entryDy=0;entryPerimeter=0;" edge="1" parent="1" source="N1mDc-vrhkv9pbBtjPSy-201" target="N1mDc-vrhkv9pbBtjPSy-192">
          <mxGeometry relative="1" as="geometry" />
        </mxCell>
        <mxCell id="N1mDc-vrhkv9pbBtjPSy-213" style="edgeStyle=orthogonalEdgeStyle;rounded=0;orthogonalLoop=1;jettySize=auto;html=1;exitX=0.5;exitY=0;exitDx=0;exitDy=0;exitPerimeter=0;entryX=0.5;entryY=1;entryDx=0;entryDy=0;entryPerimeter=0;" edge="1" parent="1" source="N1mDc-vrhkv9pbBtjPSy-202" target="N1mDc-vrhkv9pbBtjPSy-204">
          <mxGeometry relative="1" as="geometry" />
        </mxCell>
        <mxCell id="N1mDc-vrhkv9pbBtjPSy-214" style="edgeStyle=orthogonalEdgeStyle;rounded=0;orthogonalLoop=1;jettySize=auto;html=1;exitX=0.5;exitY=0;exitDx=0;exitDy=0;exitPerimeter=0;entryX=0.5;entryY=1;entryDx=0;entryDy=0;entryPerimeter=0;" edge="1" parent="1" source="N1mDc-vrhkv9pbBtjPSy-203" target="N1mDc-vrhkv9pbBtjPSy-205">
          <mxGeometry relative="1" as="geometry" />
        </mxCell>
        <mxCell id="N1mDc-vrhkv9pbBtjPSy-216" style="edgeStyle=orthogonalEdgeStyle;rounded=0;orthogonalLoop=1;jettySize=auto;html=1;exitX=0.5;exitY=0;exitDx=0;exitDy=0;entryX=0.5;entryY=1;entryDx=0;entryDy=0;entryPerimeter=0;" edge="1" parent="1" source="N1mDc-vrhkv9pbBtjPSy-110" target="N1mDc-vrhkv9pbBtjPSy-201">
          <mxGeometry relative="1" as="geometry" />
        </mxCell>
        <mxCell id="N1mDc-vrhkv9pbBtjPSy-240" style="edgeStyle=orthogonalEdgeStyle;rounded=0;orthogonalLoop=1;jettySize=auto;html=1;exitX=0.5;exitY=1;exitDx=0;exitDy=0;" edge="1" parent="1" source="N1mDc-vrhkv9pbBtjPSy-221" target="N1mDc-vrhkv9pbBtjPSy-125">
          <mxGeometry relative="1" as="geometry" />
        </mxCell>
        <mxCell id="N1mDc-vrhkv9pbBtjPSy-243" style="rounded=0;orthogonalLoop=1;jettySize=auto;html=1;exitX=0.5;exitY=0;exitDx=0;exitDy=0;" edge="1" parent="1" source="N1mDc-vrhkv9pbBtjPSy-221" target="N1mDc-vrhkv9pbBtjPSy-131">
          <mxGeometry relative="1" as="geometry" />
        </mxCell>
        <mxCell id="N1mDc-vrhkv9pbBtjPSy-245" style="rounded=0;orthogonalLoop=1;jettySize=auto;html=1;exitX=1;exitY=0.25;exitDx=0;exitDy=0;" edge="1" parent="1" source="N1mDc-vrhkv9pbBtjPSy-221" target="N1mDc-vrhkv9pbBtjPSy-231">
          <mxGeometry relative="1" as="geometry" />
        </mxCell>
        <mxCell id="N1mDc-vrhkv9pbBtjPSy-221" value="" style="image;aspect=fixed;perimeter=ellipsePerimeter;html=1;align=center;shadow=0;dashed=0;spacingTop=3;image=img/lib/active_directory/internet_globe.svg;" vertex="1" parent="1">
          <mxGeometry x="1596.5" y="750" width="70" height="70" as="geometry" />
        </mxCell>
        <mxCell id="N1mDc-vrhkv9pbBtjPSy-236" style="rounded=0;orthogonalLoop=1;jettySize=auto;html=1;entryX=0;entryY=0.25;entryDx=0;entryDy=0;exitX=0.97;exitY=0.5;exitDx=0;exitDy=0;exitPerimeter=0;" edge="1" parent="1" source="N1mDc-vrhkv9pbBtjPSy-222" target="N1mDc-vrhkv9pbBtjPSy-221">
          <mxGeometry relative="1" as="geometry" />
        </mxCell>
        <mxCell id="N1mDc-vrhkv9pbBtjPSy-237" style="rounded=0;orthogonalLoop=1;jettySize=auto;html=1;exitX=0.5;exitY=0;exitDx=0;exitDy=0;exitPerimeter=0;" edge="1" parent="1" source="N1mDc-vrhkv9pbBtjPSy-222" target="N1mDc-vrhkv9pbBtjPSy-128">
          <mxGeometry relative="1" as="geometry" />
        </mxCell>
        <mxCell id="N1mDc-vrhkv9pbBtjPSy-222" value="" style="outlineConnect=0;dashed=0;verticalLabelPosition=bottom;verticalAlign=top;align=center;html=1;shape=mxgraph.aws3.ssl_padlock;fillColor=#D2D3D3;gradientColor=none;" vertex="1" parent="1">
          <mxGeometry x="1470" y="690" width="50" height="48" as="geometry" />
        </mxCell>
        <mxCell id="N1mDc-vrhkv9pbBtjPSy-244" style="rounded=0;orthogonalLoop=1;jettySize=auto;html=1;entryX=1;entryY=0.25;entryDx=0;entryDy=0;" edge="1" parent="1" source="N1mDc-vrhkv9pbBtjPSy-231" target="N1mDc-vrhkv9pbBtjPSy-221">
          <mxGeometry relative="1" as="geometry" />
        </mxCell>
        <mxCell id="N1mDc-vrhkv9pbBtjPSy-231" value="" style="sketch=0;pointerEvents=1;shadow=0;dashed=0;html=1;strokeColor=none;fillColor=#005F4B;labelPosition=center;verticalLabelPosition=bottom;verticalAlign=top;align=center;outlineConnect=0;shape=mxgraph.veeam2.dns;" vertex="1" parent="1">
          <mxGeometry x="1790" y="630" width="60" height="58" as="geometry" />
        </mxCell>
        <mxCell id="N1mDc-vrhkv9pbBtjPSy-238" style="rounded=0;orthogonalLoop=1;jettySize=auto;html=1;entryX=0.5;entryY=0;entryDx=0;entryDy=0;entryPerimeter=0;" edge="1" parent="1" source="N1mDc-vrhkv9pbBtjPSy-128" target="N1mDc-vrhkv9pbBtjPSy-222">
          <mxGeometry relative="1" as="geometry" />
        </mxCell>
        <mxCell id="N1mDc-vrhkv9pbBtjPSy-239" style="rounded=0;orthogonalLoop=1;jettySize=auto;html=1;exitX=0;exitY=0.25;exitDx=0;exitDy=0;entryX=0.97;entryY=0.5;entryDx=0;entryDy=0;entryPerimeter=0;" edge="1" parent="1" source="N1mDc-vrhkv9pbBtjPSy-221" target="N1mDc-vrhkv9pbBtjPSy-222">
          <mxGeometry relative="1" as="geometry" />
        </mxCell>
        <mxCell id="N1mDc-vrhkv9pbBtjPSy-250" style="rounded=0;orthogonalLoop=1;jettySize=auto;html=1;entryX=0.15;entryY=0.741;entryDx=0;entryDy=0;entryPerimeter=0;" edge="1" parent="1" source="N1mDc-vrhkv9pbBtjPSy-128" target="N1mDc-vrhkv9pbBtjPSy-131">
          <mxGeometry relative="1" as="geometry">
            <mxPoint x="1650" y="600" as="targetPoint" />
          </mxGeometry>
        </mxCell>
        <mxCell id="N1mDc-vrhkv9pbBtjPSy-252" value="www.foobar.com" style="edgeLabel;html=1;align=center;verticalAlign=middle;resizable=0;points=[];" vertex="1" connectable="0" parent="N1mDc-vrhkv9pbBtjPSy-250">
          <mxGeometry x="0.3182" y="-2" relative="1" as="geometry">
            <mxPoint x="-22" y="-4" as="offset" />
          </mxGeometry>
        </mxCell>
        <mxCell id="N1mDc-vrhkv9pbBtjPSy-253" style="edgeStyle=orthogonalEdgeStyle;rounded=0;orthogonalLoop=1;jettySize=auto;html=1;" edge="1" parent="1" source="N1mDc-vrhkv9pbBtjPSy-131" target="N1mDc-vrhkv9pbBtjPSy-128">
          <mxGeometry relative="1" as="geometry">
            <mxPoint x="1450" y="560" as="targetPoint" />
            <Array as="points">
              <mxPoint x="1694" y="510" />
              <mxPoint x="1431" y="510" />
            </Array>
          </mxGeometry>
        </mxCell>
        <mxCell id="N1mDc-vrhkv9pbBtjPSy-255" value="8.8.8.8" style="edgeLabel;html=1;align=center;verticalAlign=middle;resizable=0;points=[];" vertex="1" connectable="0" parent="N1mDc-vrhkv9pbBtjPSy-253">
          <mxGeometry x="0.042" y="4" relative="1" as="geometry">
            <mxPoint x="-17" y="-3" as="offset" />
          </mxGeometry>
        </mxCell>
      </root>
    </mxGraphModel>
  </diagram>
</mxfile>
